<?xml version="1.0" standalone="no"?>
<!DOCTYPE svg PUBLIC "-//W3C//DTD SVG 20010904//EN"
 "http://www.w3.org/TR/2001/REC-SVG-20010904/DTD/svg10.dtd">
<svg version="1.0" xmlns="http://www.w3.org/2000/svg"
 width="1208.000000pt" height="1208.000000pt" viewBox="0 0 1208.000000 1208.000000"
 preserveAspectRatio="xMidYMid meet">
<metadata>
Created by potrace 1.11, written by Peter Selinger 2001-2013
</metadata>
<g transform="translate(0.000000,1208.000000) scale(0.100000,-0.100000)"
fill="#000000" stroke="none">
<path d="M7104 8935 c-4 -8 -11 -12 -17 -8 -6 4 -8 0 -4 -10 3 -9 1 -19 -5
-23 -7 -4 -8 -3 -4 4 4 7 2 12 -3 12 -6 0 -11 -5 -11 -11 0 -5 -4 -8 -9 -5 -5
3 -16 -5 -25 -19 -9 -14 -25 -25 -36 -25 -14 0 -18 -5 -13 -17 4 -10 2 -14 -4
-10 -6 4 -8 -3 -6 -17 3 -15 -1 -25 -12 -29 -10 -4 -14 -3 -9 4 10 17 -30 -7
-47 -27 -12 -16 -12 -17 1 -10 8 4 7 1 -3 -7 -10 -9 -18 -19 -18 -24 1 -4 -4
-8 -9 -8 -6 0 -14 -5 -18 -11 -4 -6 -16 -16 -27 -23 -16 -10 -16 -11 -2 -7 17
5 17 5 0 -19 -10 -13 -23 -25 -30 -25 -16 0 -44 -41 -36 -53 4 -6 1 -7 -7 -2
-10 6 -12 4 -6 -10 6 -16 4 -16 -11 -4 -10 7 -15 10 -11 5 3 -4 -3 -19 -14
-32 -17 -19 -24 -21 -35 -12 -8 6 -13 7 -12 2 3 -20 -1 -35 -10 -30 -5 3 -12
-1 -15 -10 -4 -10 -2 -13 7 -8 6 4 1 -5 -13 -21 -14 -16 -19 -25 -11 -20 10 6
12 4 7 -4 -5 -7 -14 -10 -22 -7 -8 3 -14 0 -14 -6 0 -6 -3 -8 -6 -5 -8 7 -44
-31 -44 -45 0 -5 -5 -6 -12 -2 -8 5 -9 2 -4 -11 5 -15 4 -16 -8 -6 -12 10 -13
8 -9 -10 5 -18 3 -21 -10 -16 -9 3 -18 0 -21 -9 -4 -10 -2 -13 7 -8 6 4 -4 -9
-23 -28 -19 -19 -38 -34 -42 -31 -4 2 -5 -5 -3 -16 3 -15 -1 -19 -16 -16 -10
2 -22 -1 -25 -7 -4 -7 -2 -8 4 -4 21 13 13 -6 -12 -29 -14 -13 -28 -20 -31
-16 -4 3 -6 1 -5 -4 5 -23 -1 -34 -15 -29 -8 4 -17 -1 -21 -10 -3 -9 -10 -13
-15 -10 -5 3 -9 -2 -9 -10 0 -9 -7 -16 -16 -16 -8 0 -12 -4 -9 -10 3 -5 1 -10
-5 -10 -6 0 -8 -5 -4 -12 5 -8 0 -7 -11 2 -10 8 -16 10 -12 3 9 -15 -2 -43
-18 -43 -7 0 -19 -8 -26 -17 -13 -16 -12 -17 4 -4 17 14 17 13 5 -13 -18 -41
-75 -95 -87 -83 -13 13 -27 2 -45 -33 -9 -20 -10 -28 -3 -24 7 4 3 -2 -8 -13
-11 -11 -21 -16 -23 -12 -7 17 -23 8 -42 -23 -13 -22 -16 -36 -9 -44 7 -8 6
-15 -2 -20 -8 -5 -10 -3 -5 7 4 8 -2 3 -14 -11 -12 -14 -19 -19 -15 -12 11 22
-2 13 -20 -14 -9 -15 -11 -23 -4 -19 8 5 10 4 5 -3 -4 -7 -13 -12 -21 -12 -7
0 -16 -6 -18 -12 -4 -10 -6 -10 -6 0 -1 10 -4 10 -15 0 -8 -7 -11 -17 -8 -22
3 -5 -2 -7 -11 -3 -9 3 -16 3 -16 -1 4 -22 -2 -42 -11 -37 -5 3 -10 -1 -10
-10 0 -10 -7 -15 -17 -13 -10 2 -18 -3 -19 -9 -1 -7 -2 -18 -3 -24 0 -6 -8 -8
-17 -5 -13 5 -14 3 -6 -6 7 -9 6 -17 -4 -26 -8 -7 -14 -10 -14 -5 0 4 -7 -2
-16 -13 -8 -10 -13 -14 -10 -7 7 13 -19 12 -31 -2 -4 -4 -2 -5 5 -1 6 4 12 2
12 -3 0 -6 -6 -11 -12 -11 -9 0 -8 -4 2 -10 13 -8 12 -10 -2 -10 -10 0 -18 -4
-18 -10 0 -5 -8 -6 -17 -3 -13 5 -15 2 -10 -11 4 -10 3 -15 -3 -11 -6 3 -10 1
-10 -5 0 -6 -4 -9 -9 -5 -6 3 -8 -4 -6 -15 2 -11 0 -18 -5 -15 -11 7 -40 -5
-40 -17 0 -5 6 -6 13 -2 6 4 3 -2 -7 -14 -12 -14 -14 -22 -7 -22 7 0 9 -5 6
-11 -4 -6 -13 -8 -21 -5 -8 3 -13 0 -11 -7 1 -7 -6 -11 -16 -11 -12 1 -15 -2
-8 -10 6 -7 4 -16 -5 -24 -11 -10 -14 -10 -14 0 -1 9 -5 7 -14 -4 -7 -10 -16
-15 -19 -11 -4 3 -7 -1 -7 -11 0 -11 -4 -14 -12 -10 -7 5 -9 2 -6 -7 3 -8 -4
-23 -15 -34 -11 -11 -17 -14 -13 -5 4 8 1 6 -8 -4 -8 -10 -13 -23 -9 -29 3 -6
1 -7 -5 -3 -7 4 -12 2 -12 -4 0 -6 -5 -8 -12 -4 -8 5 -7 0 2 -11 13 -17 13
-18 0 -14 -17 6 -52 -25 -42 -37 4 -4 -1 -4 -11 -1 -15 6 -16 4 -7 -13 9 -16
8 -18 -6 -13 -12 4 -15 3 -10 -5 5 -8 0 -12 -13 -12 -12 0 -21 -5 -21 -11 0
-5 -4 -7 -10 -4 -5 3 -10 -1 -10 -10 0 -9 -4 -13 -10 -10 -5 3 -10 0 -10 -7 0
-7 -9 -19 -20 -26 -11 -7 -20 -20 -20 -30 0 -14 -2 -15 -10 -2 -8 13 -10 12
-11 -5 -1 -11 -1 -23 0 -28 0 -4 -2 -6 -6 -6 -23 4 -35 -3 -30 -15 4 -11 1
-13 -11 -9 -15 6 -16 5 -2 -12 9 -11 10 -16 3 -11 -14 8 -66 -37 -56 -48 6 -5
-5 -8 -23 -5 -4 0 -11 -5 -15 -13 -8 -11 -10 -11 -18 1 -7 11 -9 11 -14 0 -5
-12 -6 -12 -6 0 -1 10 -4 11 -15 2 -19 -16 -71 10 -54 27 9 9 9 12 0 12 -7 0
-17 11 -24 25 -6 13 -15 22 -19 19 -5 -3 -9 2 -9 10 0 9 -4 16 -10 16 -5 0
-10 8 -10 18 0 14 -2 15 -10 2 -8 -13 -10 -12 -10 3 0 9 -3 16 -7 16 -5 -1
-15 -1 -23 0 -13 1 -13 2 0 11 11 7 11 10 2 10 -7 0 -10 5 -7 10 3 6 1 10 -5
10 -6 0 -8 5 -5 10 3 6 -1 10 -10 10 -9 0 -13 5 -10 10 3 6 1 10 -5 10 -12 0
-40 24 -40 35 0 3 5 3 12 -1 7 -4 8 -3 4 5 -4 6 -12 9 -17 6 -5 -4 -9 -1 -9 5
0 6 -4 9 -9 6 -5 -4 -8 5 -6 19 2 20 0 23 -11 14 -11 -9 -14 -8 -14 5 0 10 -4
15 -9 12 -5 -3 -11 4 -14 15 -4 15 -11 20 -22 16 -13 -6 -14 -3 -4 14 8 15 8
19 0 15 -6 -4 -11 -2 -11 3 0 6 -5 11 -11 11 -5 0 -7 -5 -3 -12 4 -7 3 -8 -5
-4 -6 4 -9 12 -6 17 4 5 -1 19 -11 31 -12 17 -15 18 -10 5 3 -11 2 -16 -4 -12
-6 3 -10 13 -10 21 0 8 -4 14 -10 14 -5 0 -10 6 -10 14 0 8 -13 23 -30 33 -16
9 -30 25 -30 35 0 12 -8 18 -22 18 -17 0 -19 3 -10 9 11 7 11 11 -2 23 -11 12
-12 18 -3 27 9 9 8 11 -4 6 -17 -6 -34 19 -24 36 4 5 -1 6 -9 3 -11 -4 -19 2
-26 20 -5 14 -12 26 -15 26 -4 0 -3 -6 1 -12 4 -7 -2 -4 -14 6 -24 21 -29 32
-10 20 7 -4 8 -3 4 4 -4 7 -14 12 -23 12 -8 0 -13 6 -10 13 6 16 -14 34 -36
31 -15 -2 -16 0 -6 12 7 9 8 14 1 14 -18 0 -43 32 -38 47 3 8 1 11 -4 8 -6 -3
-10 0 -10 7 0 9 -3 9 -10 -2 -9 -13 -10 -13 -11 0 -1 8 -1 18 0 22 0 4 -8 10
-19 13 -11 4 -20 14 -20 24 0 23 -20 39 -42 36 -10 -2 -18 1 -18 7 0 7 -5 6
-14 -1 -11 -9 -15 -9 -19 1 -4 11 -6 10 -6 0 -1 -7 -5 -10 -11 -7 -5 3 -10 1
-10 -5 0 -6 -4 -9 -9 -6 -5 4 -7 -3 -4 -14 3 -11 0 -20 -6 -20 -6 0 -11 -5
-11 -11 0 -5 5 -7 12 -3 7 4 8 3 4 -5 -4 -6 -11 -9 -16 -6 -4 3 -11 -1 -13 -7
-4 -10 -6 -10 -6 0 -1 9 -6 10 -20 3 -10 -6 -21 -7 -25 -4 -3 3 -7 -5 -7 -18
-2 -31 -2 -30 6 -54 4 -11 3 -16 -2 -10 -4 6 -14 11 -22 13 -12 3 -12 1 0 -14
12 -16 12 -17 -3 -11 -13 5 -18 1 -18 -12 0 -11 -9 -21 -22 -24 -12 -4 -19 -9
-16 -12 10 -10 -24 -45 -36 -38 -6 4 -5 -1 3 -10 7 -9 11 -18 7 -18 -3 -1 -10
-2 -15 -3 -5 0 -13 -5 -18 -10 -5 -5 -2 -6 6 -1 9 5 12 3 9 -6 -3 -8 -11 -13
-17 -12 -11 3 -15 -10 -12 -36 2 -7 -2 -10 -8 -6 -6 3 -11 -2 -11 -12 0 -11
-3 -14 -8 -7 -5 7 -14 5 -27 -9 -11 -11 -13 -16 -5 -12 13 8 13 7 1 -8 -9 -12
-10 -17 -2 -17 8 0 8 -4 -1 -14 -7 -8 -17 -11 -22 -8 -5 3 -7 -2 -3 -11 4 -11
1 -17 -9 -17 -8 0 -13 -4 -9 -9 3 -5 1 -12 -5 -16 -5 -3 -10 -2 -10 4 0 6 -7
8 -15 5 -8 -4 -15 -10 -15 -16 0 -5 6 -6 13 -3 6 4 4 0 -5 -8 -10 -8 -14 -17
-10 -22 4 -4 -4 -4 -18 0 -14 4 -22 4 -18 0 4 -5 0 -14 -10 -22 -13 -11 -14
-16 -4 -20 10 -4 10 -8 0 -21 -11 -13 -11 -14 1 -7 10 5 12 4 7 -3 -4 -7 -14
-12 -22 -12 -8 0 -14 -4 -14 -10 0 -5 5 -10 10 -10 6 0 0 -11 -12 -24 -13 -13
-26 -22 -30 -20 -7 5 -48 -44 -48 -58 0 -5 6 -6 13 -3 6 4 4 0 -5 -8 -10 -8
-15 -17 -11 -20 3 -4 -5 -4 -17 -2 -12 2 -20 2 -17 -2 4 -3 -1 -12 -11 -20 -9
-8 -11 -12 -5 -8 8 4 11 1 7 -9 -3 -9 -11 -14 -16 -13 -6 1 -13 -4 -16 -12 -3
-9 0 -11 9 -6 8 5 11 4 6 -1 -5 -5 -14 -9 -20 -9 -7 -1 -11 -6 -10 -13 2 -7
-4 -12 -13 -12 -10 0 -14 -5 -10 -16 3 -8 2 -12 -4 -9 -6 3 -10 1 -10 -5 0 -6
-4 -9 -9 -5 -5 3 -12 1 -16 -5 -3 -5 -1 -10 6 -10 8 0 7 -5 -2 -17 -12 -14
-12 -16 1 -9 8 5 1 -5 -17 -21 -24 -24 -29 -33 -20 -42 9 -9 8 -11 -5 -6 -10
4 -24 0 -33 -9 -9 -9 -13 -16 -9 -16 4 0 -1 -7 -12 -16 -10 -8 -12 -13 -4 -9
13 6 13 5 0 -7 -9 -7 -14 -21 -12 -32 2 -11 0 -16 -7 -12 -6 4 -11 2 -11 -4 0
-6 -5 -8 -12 -4 -7 4 -8 3 -4 -5 4 -6 0 -14 -9 -17 -13 -6 -14 -8 -3 -15 10
-7 8 -9 -6 -9 -12 0 -16 -5 -12 -15 3 -8 2 -14 -2 -14 -22 4 -33 -3 -28 -16 3
-8 1 -15 -5 -15 -6 0 -7 -4 -4 -10 3 -5 1 -10 -5 -10 -6 0 -8 -4 -5 -10 4 -6
-1 -7 -12 -3 -10 3 -15 3 -11 -2 4 -4 0 -14 -10 -22 -10 -9 -11 -12 -2 -7 8 4
-1 -8 -21 -27 -37 -36 -55 -69 -38 -69 6 0 7 -5 4 -11 -4 -6 -9 -8 -12 -5 -5
5 -73 -59 -73 -69 0 -4 4 -4 8 -1 5 3 9 -1 9 -8 0 -7 -10 -12 -23 -10 -17 1
-21 -2 -17 -14 4 -9 2 -13 -4 -9 -12 7 -44 -28 -35 -39 4 -4 0 -5 -8 -2 -11 4
-16 -1 -18 -16 -2 -30 -27 -78 -35 -69 -4 3 -7 -2 -7 -11 0 -12 -5 -16 -15
-12 -8 3 -14 2 -13 -2 1 -4 -3 -17 -10 -30 -7 -12 -10 -28 -6 -34 4 -7 3 -8
-4 -4 -7 4 -12 1 -12 -9 0 -9 -4 -14 -9 -11 -5 3 -12 -6 -15 -19 -4 -14 -11
-23 -16 -20 -6 3 -10 1 -10 -5 0 -6 -4 -9 -9 -5 -6 3 -8 -3 -6 -14 3 -15 -1
-18 -18 -13 -20 5 -21 4 -8 -12 12 -14 12 -17 1 -14 -13 3 -16 -2 -19 -38 0
-8 -6 -12 -12 -8 -7 4 -10 1 -7 -7 5 -16 -8 -32 -35 -42 -9 -3 -16 -12 -15
-19 2 -7 -5 -12 -15 -12 -13 1 -15 -2 -8 -10 7 -8 4 -16 -10 -24 -11 -7 -23
-10 -28 -8 -4 3 -8 -1 -8 -9 0 -8 5 -12 11 -9 6 3 3 -1 -6 -9 -13 -10 -14 -17
-6 -25 8 -8 7 -13 -5 -18 -9 -3 -15 -10 -12 -14 3 -5 -1 -15 -9 -23 -8 -8 -12
-17 -9 -21 4 -3 1 -6 -5 -6 -7 0 -12 6 -12 13 0 8 -3 7 -9 -3 -6 -8 -7 -18 -4
-24 3 -5 1 -6 -6 -2 -14 9 -43 -12 -35 -25 3 -5 -3 -6 -13 -2 -16 6 -16 5 -4
-10 12 -15 11 -17 -3 -17 -10 0 -14 -4 -11 -10 4 -6 -1 -7 -11 -3 -13 5 -15 3
-9 -7 6 -10 4 -12 -8 -7 -11 4 -17 1 -18 -8 -3 -35 -6 -40 -17 -38 -7 2 -12
-1 -12 -5 0 -4 -9 -8 -20 -8 -11 0 -20 5 -20 11 0 5 -5 3 -10 -5 -5 -8 -10
-10 -10 -5 0 6 -9 11 -20 11 -11 0 -20 -3 -20 -6 0 -3 -9 -6 -19 -6 -11 0 -17
4 -15 8 6 10 6 10 -33 -1 -22 -7 -33 -6 -37 2 -3 9 -5 9 -5 0 -1 -8 -10 -9
-30 -3 -19 5 -31 5 -33 -2 -4 -12 -68 45 -68 60 0 6 -9 8 -21 5 -12 -4 -25 0
-30 8 -7 11 -9 10 -9 -5 0 -14 -3 -16 -13 -7 -8 6 -16 8 -19 5 -3 -3 -12 8
-19 25 -10 23 -16 27 -26 19 -9 -7 -13 -7 -13 1 0 7 -4 10 -10 6 -5 -3 -18 3
-29 14 -13 13 -16 21 -8 25 7 3 -1 4 -18 4 -16 0 -43 3 -59 7 -21 6 -27 5 -22
-4 4 -6 12 -8 18 -5 7 4 8 2 4 -4 -4 -7 -15 -12 -24 -12 -15 0 -15 -2 -2 -10
8 -5 10 -10 3 -10 -6 0 -9 -9 -6 -21 4 -14 12 -19 24 -16 12 3 16 0 12 -9 -3
-8 0 -14 7 -14 6 0 8 -4 5 -10 -3 -5 -2 -10 2 -10 5 0 14 -9 21 -21 9 -14 10
-19 2 -14 -9 6 -9 2 -1 -14 12 -22 27 -30 16 -8 -4 6 1 3 9 -7 9 -11 16 -24
16 -29 0 -5 8 -3 18 4 9 7 14 10 11 6 -8 -9 37 -57 53 -57 6 0 8 -9 5 -20 -3
-13 0 -20 9 -20 8 0 14 -7 14 -15 0 -10 7 -15 18 -13 9 2 16 -2 15 -8 -1 -7 6
-10 16 -7 10 3 22 -1 26 -8 5 -8 4 -10 -3 -5 -8 5 -10 2 -6 -8 3 -9 11 -14 17
-13 7 1 12 -6 12 -16 0 -10 9 -23 20 -28 20 -10 20 -10 0 6 -12 11 -14 16 -5
13 8 -3 21 -15 27 -29 7 -13 19 -23 28 -21 8 2 15 -4 15 -13 0 -8 7 -15 16
-15 8 0 12 -4 9 -10 -4 -6 1 -7 10 -3 10 3 21 0 26 -8 7 -12 9 -12 9 0 0 11 4
10 16 -5 8 -10 13 -13 9 -6 -4 7 0 12 11 12 11 0 15 -6 11 -20 -3 -11 -1 -18
4 -14 5 3 9 -3 9 -13 0 -15 2 -16 11 -3 8 11 12 12 16 2 2 -6 9 -9 14 -6 6 3
17 0 26 -8 14 -11 16 -11 8 1 -6 10 -4 12 4 7 7 -5 10 -14 7 -22 -3 -8 0 -11
10 -7 9 3 14 -1 14 -12 0 -11 5 -15 15 -11 8 3 15 0 15 -6 0 -7 4 -7 14 1 11
9 15 9 19 -1 4 -11 6 -11 6 0 1 10 4 10 15 0 8 -7 11 -17 8 -23 -3 -5 2 -4 11
4 12 9 17 10 17 2 0 -7 5 -9 10 -6 6 3 13 0 16 -9 3 -8 12 -17 20 -20 8 -3 13
-2 10 3 -4 5 3 7 15 4 13 -4 18 -11 14 -20 -3 -11 -1 -13 10 -10 8 4 17 1 21
-5 4 -7 9 -6 15 3 7 12 9 12 9 0 0 -11 3 -11 15 -1 8 7 15 8 15 3 0 -12 43
-12 53 1 4 7 10 6 17 -4 9 -13 10 -13 10 0 0 13 1 13 10 0 9 -13 11 -13 20 0
9 13 11 13 20 0 9 -13 10 -13 10 0 0 13 1 13 11 0 8 -11 12 -12 16 -2 2 6 9
12 14 12 6 0 7 -6 3 -12 -6 -10 -4 -10 8 0 13 10 17 10 21 0 4 -10 8 -10 16 2
10 13 12 13 21 0 9 -13 10 -13 10 0 0 13 1 13 11 0 8 -11 12 -12 16 -2 2 6 9
12 14 12 6 0 7 -6 3 -12 -6 -10 -4 -10 8 0 13 10 17 10 21 0 4 -10 8 -10 16 2
10 13 11 13 11 0 0 -13 1 -13 10 0 9 13 11 13 20 0 9 -13 10 -13 10 0 0 13 1
13 10 0 9 -13 11 -13 20 0 9 13 11 13 20 0 9 -13 10 -13 10 0 0 13 1 13 11 0
8 -11 12 -12 16 -2 2 6 9 12 14 12 6 0 7 -6 3 -12 -6 -10 -4 -10 8 0 13 10 17
10 21 0 4 -10 8 -10 16 2 10 13 12 13 21 0 9 -13 10 -13 10 0 0 13 1 13 11 0
8 -11 12 -12 16 -2 2 6 9 12 14 12 6 0 7 -6 3 -12 -6 -10 -4 -10 8 0 13 10 17
10 22 0 5 -10 7 -10 12 0 3 6 11 9 17 5 35 -22 99 0 82 28 -6 8 -2 8 14 0 16
-9 21 -9 21 1 0 9 3 9 10 -2 9 -13 10 -13 11 0 1 8 1 18 0 22 0 4 9 5 20 3 14
-3 19 0 16 9 -4 10 3 13 24 12 17 -1 33 2 36 7 3 5 9 3 14 -4 7 -11 9 -11 9 1
0 13 1 13 10 0 9 -13 10 -13 10 0 0 13 1 13 10 0 9 -13 10 -13 10 0 0 13 1 13
10 0 5 -8 10 -10 10 -4 0 11 35 12 46 1 11 -10 24 -8 24 4 0 5 -6 7 -12 4 -7
-4 -1 4 15 17 15 13 27 30 27 38 0 13 2 13 10 0 9 -13 10 -13 10 0 0 13 1 13
10 0 9 -13 10 -13 10 0 0 13 1 13 10 0 9 -13 10 -13 10 0 0 13 1 13 10 0 9
-13 10 -13 10 0 0 13 1 13 10 0 8 -12 10 -12 10 -1 0 11 3 11 17 0 11 -10 14
-10 9 -1 -6 11 4 17 26 13 4 0 4 7 1 16 -4 11 -3 14 5 9 7 -4 12 -1 12 8 0 9
5 16 11 16 5 0 7 -4 4 -10 -3 -5 -1 -10 4 -10 6 0 11 4 11 9 0 5 15 5 35 1 19
-4 35 -4 35 0 0 10 27 7 37 -5 4 -4 2 -5 -6 0 -10 5 -12 4 -7 -4 4 -6 12 -9
17 -5 5 3 7 9 4 14 -3 4 2 11 11 14 8 3 12 2 9 -3 -3 -5 -1 -12 4 -15 5 -3 7
8 6 24 -2 27 -1 29 13 18 12 -10 14 -10 8 0 -4 6 -3 12 3 12 5 0 17 3 27 7 13
5 15 3 10 -8 -4 -8 1 -3 12 10 14 18 26 23 46 19 22 -4 24 -3 14 9 -6 8 -7 13
-2 12 24 -4 36 2 30 17 -3 9 -2 12 5 9 5 -4 17 -1 26 7 14 11 16 11 8 -2 -8
-13 -7 -13 8 -1 9 7 17 9 17 3 0 -5 9 -8 21 -5 11 3 16 9 11 12 -6 4 -4 11 4
19 8 7 14 9 14 5 0 -4 7 1 15 11 8 11 15 15 15 10 0 -17 44 -10 58 9 7 9 18
15 23 11 5 -3 9 -2 8 3 -3 13 12 43 23 43 5 0 6 -4 3 -10 -3 -5 -1 -10 4 -10
6 0 11 6 11 13 0 8 4 7 10 -3 5 -8 10 -10 10 -4 0 7 11 9 28 7 21 -4 24 -2 12
6 -13 9 -12 11 4 11 11 0 16 5 13 13 -3 9 4 13 22 12 15 -1 34 8 44 19 10 12
16 16 13 9 -5 -9 1 -8 20 2 15 7 33 11 42 8 8 -4 13 -2 10 3 -3 5 10 19 29 31
19 13 31 17 27 10 -5 -7 0 -5 11 3 10 8 21 15 24 15 3 0 4 7 3 14 -3 13 -1 13
12 2 14 -12 16 -11 10 4 -5 13 -4 16 4 11 7 -4 12 -2 12 6 0 9 3 9 10 -2 8
-12 10 -12 10 -1 0 11 3 11 15 1 10 -8 15 -9 15 -1 0 6 16 17 35 25 19 8 35
20 35 27 0 8 5 7 17 -2 17 -14 20 -14 41 3 8 7 12 7 12 -1 0 -7 5 -9 10 -6 6
4 8 11 5 16 -4 5 0 9 7 9 10 0 10 2 0 8 -8 6 0 16 27 34 26 17 42 22 45 15 2
-7 5 -2 5 10 1 12 11 31 23 42 17 17 24 18 37 8 12 -10 13 -9 7 2 -7 10 -3 12
13 6 12 -3 21 -3 20 2 -3 20 2 27 11 13 7 -11 10 -11 10 -2 0 7 5 10 10 7 6
-3 10 1 10 10 0 9 5 13 10 10 6 -3 10 -1 10 4 0 6 6 10 13 8 7 -1 11 6 9 17
-2 10 1 15 7 12 5 -4 15 2 21 11 10 16 11 16 6 1 -3 -12 -1 -15 9 -11 8 3 13
9 10 13 -3 5 4 11 15 15 11 4 18 11 15 16 -3 5 1 6 9 3 22 -8 39 5 27 20 -7 8
-5 12 9 12 10 0 16 -4 14 -8 -3 -4 2 -5 10 -2 9 3 14 10 11 15 -3 4 3 6 14 4
13 -2 21 3 24 17 3 11 10 17 16 13 6 -3 11 1 11 11 0 10 3 14 7 11 3 -4 12 1
19 11 10 12 13 13 14 3 0 -10 3 -11 13 -2 8 6 16 8 19 6 3 -3 13 6 22 20 13
19 22 24 38 19 16 -5 19 -3 12 7 -6 10 -3 10 11 -1 14 -11 19 -12 22 -2 3 6 9
10 14 6 8 -5 13 15 10 41 0 6 8 11 18 11 11 0 18 -3 15 -7 -5 -9 17 -6 33 4 6
4 14 1 17 -5 4 -7 4 -3 2 9 -2 13 1 21 8 20 6 -1 10 4 8 11 -1 8 2 11 8 7 5
-3 10 -2 10 4 0 6 8 7 18 4 15 -6 16 -5 2 12 -9 11 -10 16 -2 11 7 -4 12 -2
12 4 0 6 5 8 13 4 7 -5 6 0 -3 11 -9 11 -10 16 -2 11 6 -4 12 -2 12 3 0 6 7
11 16 11 8 0 12 5 9 10 -3 6 -1 10 4 10 6 0 11 -6 11 -12 0 -9 4 -8 10 2 9 13
10 13 10 0 0 -13 1 -13 10 0 9 13 10 13 10 0 0 -12 2 -12 9 -2 4 8 12 13 17
13 5 -1 9 5 9 12 1 6 7 11 15 9 11 -3 11 0 -1 14 -12 16 -12 17 3 11 9 -3 19
-1 22 6 3 8 5 7 5 -2 1 -10 8 -8 26 9 13 12 22 26 20 31 -3 4 -1 10 5 14 5 3
10 2 10 -3 0 -5 7 -9 15 -9 8 0 13 3 10 5 -7 7 47 42 56 36 4 -2 10 0 14 6 3
5 1 10 -5 10 -7 0 -6 5 2 14 7 8 16 12 21 9 4 -2 7 1 7 8 0 8 4 8 15 -1 12
-10 15 -9 15 6 0 17 1 17 15 -2 8 -10 15 -17 15 -14 1 3 4 14 6 25 3 11 6 25
6 32 1 7 9 8 22 4 15 -6 27 0 50 23 17 17 34 30 38 28 4 -1 8 4 8 10 0 9 4 8
10 -2 6 -9 10 -11 10 -3 0 7 6 10 13 7 7 -2 24 8 37 23 l25 28 -25 -20 -25
-20 18 21 c17 21 51 30 40 10 -4 -6 0 -5 9 1 8 7 18 10 21 6 4 -3 7 -1 7 5 0
6 8 9 18 5 14 -5 13 -3 -3 11 -14 11 -15 15 -5 14 8 -2 14 2 13 9 -2 7 7 10
23 7 22 -4 25 -2 20 12 -6 14 -4 15 9 4 9 -7 15 -9 14 -4 -4 20 2 26 15 15 10
-8 16 -9 21 -1 3 6 10 8 15 5 5 -3 12 0 16 6 5 8 3 9 -7 4 -10 -6 -10 -4 1 6
8 8 21 21 29 29 12 13 13 12 7 -5 -6 -19 -5 -19 8 -2 8 10 16 13 17 8 2 -6 15
-1 29 12 14 12 21 19 16 15 -22 -18 -26 -6 -5 11 15 12 28 16 33 11 6 -6 16
-5 25 3 12 10 13 9 6 -2 -6 -10 -4 -12 4 -6 7 4 11 16 8 26 -3 11 -1 16 5 13
5 -3 15 2 22 12 8 10 20 15 30 11 10 -4 24 1 35 12 11 11 22 17 25 14 3 -4 6
2 6 11 0 12 5 16 15 12 8 -3 15 -1 15 5 0 6 6 7 13 3 7 -5 7 -1 -3 12 -8 10
-10 16 -6 12 5 -4 15 -3 23 3 10 9 13 8 13 -1 0 -9 3 -10 13 -1 8 6 17 8 20 4
4 -3 7 2 7 13 0 15 2 16 9 5 7 -11 12 -7 25 15 8 16 15 24 16 19 0 -13 40 -14
40 -2 0 5 7 4 16 -3 8 -8 14 -9 13 -4 -3 18 3 49 8 37 3 -9 11 -7 25 7 17 16
24 17 37 7 12 -9 13 -9 7 1 -4 6 -2 12 3 12 6 0 11 -5 11 -10 0 -6 8 -5 20 2
11 7 18 19 15 26 -3 8 0 10 7 6 8 -5 9 -1 5 12 -7 18 -7 18 8 0 13 -18 15 -18
15 -3 0 14 4 16 19 7 14 -7 21 -6 24 3 4 9 6 9 6 0 1 -7 6 -13 12 -13 5 0 8 4
4 9 -3 6 4 15 15 21 11 6 20 7 20 3 1 -4 10 3 20 16 11 13 20 19 20 15 0 -5 5
-1 11 8 5 10 16 15 24 12 9 -4 15 0 15 7 0 11 3 11 10 -1 6 -9 10 -11 10 -3 0
7 6 10 13 7 8 -3 20 2 27 11 11 13 10 15 -6 10 -10 -4 -5 1 11 11 17 9 33 21
36 26 4 6 14 6 28 -1 16 -9 21 -9 21 1 0 9 3 9 10 -2 8 -12 10 -12 16 3 4 10
13 16 20 13 7 -3 16 4 19 15 4 11 9 18 12 15 4 -3 13 0 21 7 13 10 14 9 7 -3
-8 -13 -7 -13 8 -1 14 11 17 11 17 0 0 -11 2 -11 10 1 9 13 10 13 10 0 0 -12
2 -13 9 -1 7 11 9 11 14 0 5 -11 9 -10 20 3 8 10 17 14 22 10 4 -4 4 4 0 17
-5 16 -4 21 4 17 6 -4 11 -2 11 5 0 8 4 8 15 -1 12 -10 15 -10 15 1 0 11 2 11
10 -1 7 -11 10 -11 10 -2 0 10 5 10 20 2 15 -8 20 -8 20 2 0 9 3 9 10 -2 8
-12 10 -12 10 -1 0 11 3 11 17 0 9 -8 14 -9 10 -2 -4 6 -2 13 3 15 6 2 12 12
14 23 1 10 9 21 16 23 9 3 10 0 4 -9 -7 -12 -5 -12 9 0 12 9 33 12 67 9 38 -4
53 -1 62 11 12 14 11 14 -5 2 -15 -12 -20 -12 -30 -1 -9 10 -9 11 1 6 7 -4 18
-3 25 2 7 5 20 8 30 7 9 -2 15 1 11 6 -5 8 9 13 29 10 4 0 7 4 7 10 0 8 6 7
17 -2 14 -12 16 -12 8 0 -6 11 -4 13 8 8 11 -4 14 -2 11 7 -3 8 0 17 7 22 8 4
10 3 5 -4 -4 -7 -2 -12 3 -12 6 0 11 4 11 8 0 12 70 5 86 -9 11 -9 15 -8 19 3
4 9 17 13 40 10 48 -6 94 6 74 19 -10 6 -11 9 -1 9 7 0 10 5 6 12 -4 7 -3 8 5
4 6 -4 19 -2 28 6 14 11 16 11 8 -2 -8 -13 -7 -13 8 -1 14 11 17 11 17 0 0
-12 2 -12 9 0 7 11 9 11 14 0 4 -12 7 -11 16 1 10 13 12 13 21 0 9 -13 10 -13
10 0 0 13 1 13 10 0 9 -13 11 -13 20 0 9 13 11 13 20 0 9 -13 10 -13 10 0 0
13 1 13 10 0 9 -13 10 -13 10 0 0 13 1 13 10 0 9 -13 10 -13 10 0 0 13 1 13
10 0 9 -13 11 -13 20 0 9 13 11 13 20 0 9 -13 10 -13 10 0 0 13 1 13 10 0 9
-13 11 -13 20 0 9 13 11 13 20 0 9 -13 10 -13 10 0 0 13 1 13 10 0 9 -13 10
-13 10 0 0 13 1 13 10 0 9 -13 10 -13 10 0 0 13 1 13 10 0 9 -13 10 -13 10 0
0 13 1 13 10 0 9 -13 10 -13 10 0 0 13 1 13 10 0 9 -13 10 -13 10 0 0 13 1 13
10 0 9 -13 10 -13 10 0 0 13 1 13 10 0 9 -13 11 -13 20 0 9 13 11 13 20 0 9
-13 10 -13 10 0 0 13 1 13 10 0 9 -13 11 -13 20 0 9 13 11 13 20 0 9 -13 10
-13 10 0 0 13 1 13 10 0 9 -13 10 -13 10 0 0 13 1 13 10 0 9 -13 10 -13 10 0
0 13 1 13 10 0 9 -13 10 -13 10 0 0 13 1 13 10 0 9 -13 10 -13 10 0 0 13 1 13
10 0 9 -13 10 -13 10 0 0 13 1 13 10 0 9 -13 10 -13 10 0 0 12 2 12 9 2 4 -8
11 -13 15 -13 20 3 26 -1 26 -15 0 -10 5 -14 16 -10 9 4 13 2 8 -5 -4 -8 13
-10 57 -8 64 4 119 -16 101 -37 -4 -4 1 -2 11 6 15 11 20 11 27 1 4 -8 13 -10
20 -6 7 4 13 -1 17 -14 3 -11 10 -18 16 -14 7 4 8 0 3 -12 -5 -14 -4 -15 7 -7
7 6 18 7 26 3 7 -5 21 -7 30 -4 9 2 23 -6 31 -17 23 -34 42 -56 35 -42 -10 19
13 14 24 -5 9 -16 10 -16 11 -1 0 17 33 15 58 -5 9 -7 11 -5 7 9 -4 13 -2 12
6 -3 7 -13 17 -23 23 -23 6 0 5 -4 -2 -9 -10 -6 -9 -10 7 -14 12 -3 19 -2 16
2 -2 4 2 8 10 8 8 0 12 -4 9 -8 -2 -4 2 -14 10 -22 8 -8 12 -18 8 -22 -4 -5
-1 -5 5 -1 7 4 22 2 33 -4 13 -7 20 -7 20 -1 0 7 9 7 26 1 18 -7 23 -7 18 1
-3 6 0 15 7 20 12 7 11 9 -1 9 -10 0 -11 3 -4 8 8 5 8 15 2 32 -10 24 -11 24
-18 5 -7 -19 -7 -19 -14 3 -4 12 -12 22 -17 22 -6 0 -8 4 -5 8 2 4 1 14 -5 22
-6 11 -9 11 -9 2 0 -8 -9 -4 -24 10 -13 13 -21 26 -19 30 2 4 -4 5 -13 1 -13
-5 -16 -3 -11 10 3 9 1 19 -5 23 -7 5 -8 2 -4 -7 4 -8 1 -6 -7 3 -8 10 -17 15
-21 11 -4 -4 -4 0 -1 9 4 9 1 19 -6 24 -8 5 -10 3 -5 -7 4 -8 -5 0 -20 16 -15
17 -25 22 -21 13 3 -10 2 -18 -3 -18 -6 0 -10 9 -10 19 0 11 -5 23 -12 27 -7
5 -8 3 -3 -6 5 -8 4 -11 -3 -6 -6 4 -8 14 -5 23 5 13 2 15 -15 11 -15 -4 -22
-2 -22 8 0 8 -7 14 -16 14 -8 0 -12 5 -9 10 3 6 -3 10 -14 10 -10 0 -22 6 -24
13 -4 9 -8 8 -16 -3 -9 -12 -12 -13 -20 -1 -7 11 -9 11 -14 0 -4 -10 -6 -8 -6
4 -1 12 -5 16 -13 11 -10 -6 -10 -4 0 8 14 17 0 34 -18 23 -5 -3 -10 1 -10 10
0 9 -4 14 -9 11 -5 -3 -11 1 -15 9 -3 8 -12 12 -21 9 -8 -4 -15 -1 -15 6 0 7
-6 10 -14 7 -10 -4 -12 0 -8 15 4 19 2 20 -22 14 -16 -4 -25 -3 -22 2 3 5 -12
7 -34 5 -39 -5 -46 1 -41 30 1 5 -4 5 -10 1 -9 -5 -10 -2 -6 12 7 18 7 18 -8
0 -13 -18 -15 -18 -15 -3 0 15 -4 16 -20 7 -15 -8 -20 -8 -20 2 0 9 -3 9 -10
-2 -9 -13 -10 -13 -10 0 0 13 -1 13 -10 0 -9 -13 -10 -13 -10 0 0 13 -1 13
-10 0 -7 -11 -10 -11 -10 -2 0 8 -5 10 -12 5 -25 -15 -36 -11 -31 11 3 15 2
17 -5 8 -7 -11 -10 -10 -16 3 -3 9 -4 21 -1 25 3 5 -3 7 -12 6 -10 -2 -21 2
-25 8 -5 7 -8 6 -8 -4 0 -13 -1 -13 -10 0 -9 13 -10 13 -10 0 0 -13 -1 -13
-10 0 -9 13 -10 13 -10 0 0 -13 -1 -13 -10 0 -9 13 -11 13 -20 0 -9 -13 -11
-13 -20 0 -9 13 -10 13 -10 0 0 -13 -1 -13 -10 0 -9 13 -11 13 -20 0 -9 -13
-11 -13 -20 0 -9 13 -10 13 -10 0 0 -10 -3 -11 -8 -4 -4 6 -15 10 -25 8 -13
-2 -17 2 -13 12 3 7 2 13 -2 13 -19 -3 -25 2 -12 11 11 7 -1 9 -40 9 -30 -1
-65 2 -77 6 -16 5 -23 3 -23 -5 0 -10 -3 -10 -15 0 -8 7 -15 9 -15 4 0 -5 -18
-9 -39 -9 -22 0 -37 3 -34 8 2 4 -1 7 -6 7 -6 0 -11 -5 -11 -11 0 -5 -5 -7
-12 -3 -22 14 -58 10 -58 -6 0 -13 -2 -13 -9 0 -6 8 -7 19 -5 25 3 5 -1 2 -9
-8 -11 -14 -16 -15 -20 -5 -4 8 -6 9 -6 1 -1 -7 -10 -9 -28 -4 -16 4 -40 4
-55 0 -20 -5 -28 -3 -33 9 -6 15 -8 15 -21 -2 -10 -14 -14 -16 -14 -5 0 12 -2
12 -10 -1 -5 -8 -10 -10 -10 -3 0 6 -8 10 -17 8 -58 -12 -93 -13 -87 -4 3 6
-3 5 -14 -2 -12 -7 -18 -17 -16 -21 3 -4 -2 -8 -10 -8 -9 0 -16 -8 -16 -17 0
-14 -2 -15 -9 -4 -6 10 -10 10 -16 1 -6 -9 -10 -9 -16 1 -7 11 -9 11 -9 -1 0
-13 -1 -13 -10 0 -9 13 -10 13 -10 0 0 -13 -1 -13 -10 0 -9 13 -10 13 -10 0 0
-13 -1 -13 -10 0 -9 13 -10 13 -10 0 0 -13 -1 -13 -10 0 -9 13 -10 13 -10 0 0
-13 -1 -13 -10 0 -9 13 -10 13 -10 0 0 -13 -1 -13 -10 0 -9 13 -11 13 -20 0
-9 -13 -11 -13 -20 0 -9 13 -10 13 -10 0 0 -12 -2 -12 -9 -1 -6 9 -11 10 -15
2 -8 -13 -43 6 -51 27 -2 7 0 10 5 7 6 -3 10 -1 10 4 0 6 -6 11 -12 11 -9 0
-8 4 2 10 13 8 12 10 -2 10 -16 0 -20 6 -17 26 0 3 -8 12 -18 20 -10 7 -13 14
-6 14 15 0 5 36 -15 52 -12 10 -14 10 -8 1 4 -7 2 -13 -3 -13 -6 0 -11 7 -11
15 0 8 -4 15 -10 15 -5 0 -10 5 -10 11 0 5 6 7 13 3 8 -5 8 -3 -2 9 -7 9 -18
14 -24 10 -7 -4 -8 0 -4 11 5 13 1 19 -13 23 -11 3 -17 9 -14 14 3 5 0 9 -6 9
-6 0 -10 11 -8 23 4 30 -21 57 -52 57 -5 0 -6 7 -3 17 4 11 3 14 -5 9 -7 -4
-12 -1 -12 8 0 8 -5 18 -12 22 -7 5 -8 2 -3 -7 6 -10 5 -11 -4 -3 -7 6 -13 21
-14 33 -1 11 -5 21 -10 21 -4 0 -5 5 -2 10 3 6 -4 14 -17 19 -13 6 -16 10 -8
11 13 0 13 1 0 10 -8 5 -10 10 -5 10 6 0 10 13 10 29 0 22 -3 27 -12 19 -10
-8 -13 -6 -13 7 0 11 -5 15 -15 11 -8 -3 -14 -2 -14 2 3 18 -14 51 -23 46 -6
-4 -5 4 2 16 7 12 8 20 2 16 -5 -3 -13 1 -16 10 -3 8 -10 12 -16 9 -6 -4 -7 1
-3 11 5 13 2 16 -9 11 -12 -4 -14 -1 -11 14 3 12 0 19 -8 19 -11 0 -11 2 1 10
13 8 12 10 -3 10 -10 0 -16 3 -14 8 3 4 -1 12 -8 19 -11 10 -15 10 -18 0 -3
-7 -6 1 -6 17 -1 20 -5 27 -15 23 -10 -4 -14 0 -11 14 2 10 -1 19 -6 19 -6 0
-8 10 -4 23 4 15 3 18 -3 9 -7 -11 -10 -10 -16 3 -3 9 -11 13 -17 9 -8 -4 -9
1 -4 16 5 15 4 20 -4 16 -5 -4 -18 8 -27 26 -17 32 -17 33 2 18 18 -14 18 -14
5 3 -7 9 -20 17 -27 17 -13 0 -16 7 -13 26 0 4 -5 11 -13 15 -11 7 -10 9 1 9
9 0 7 6 -7 19 -23 19 -30 37 -10 25 7 -4 8 -3 4 4 -4 6 -13 9 -20 6 -7 -3 -16
2 -20 11 -3 9 -2 14 3 11 5 -4 7 3 4 14 -3 11 -12 20 -19 20 -8 0 -14 9 -14
21 0 11 -4 18 -9 14 -5 -3 -13 0 -17 6 -4 8 -3 9 4 5 7 -4 12 -1 12 9 0 9 -4
13 -10 10 -5 -3 -10 0 -10 7 0 10 -2 10 -9 -1 -7 -11 -9 -11 -14 0 -5 12 -8
11 -17 -1 -9 -11 -13 -12 -17 -2 -7 17 -22 15 -29 -3z m-954 -1029 c0 -2 -8
-10 -17 -17 -16 -13 -17 -12 -4 4 13 16 21 21 21 13z m1465 -816 c-3 -5 -12
-10 -18 -10 -7 0 -6 4 3 10 19 12 23 12 15 0z m-4685 -834 c0 -2 -7 -7 -16
-10 -8 -3 -12 -2 -9 4 6 10 25 14 25 6z m2080 -655 c0 -5 -7 -12 -16 -15 -14
-5 -15 -4 -4 9 14 17 20 19 20 6z m-140 -85 c0 -2 -7 -7 -16 -10 -8 -3 -12 -2
-9 4 6 10 25 14 25 6z"/>
<path d="M7006 8873 c-6 -14 -5 -15 5 -6 7 7 10 15 7 18 -3 3 -9 -2 -12 -12z"/>
<path d="M8290 6661 c0 -6 -9 -8 -19 -6 -14 3 -18 -1 -14 -11 3 -9 0 -14 -8
-12 -8 2 -13 -3 -11 -11 2 -9 -5 -12 -23 -9 -14 3 -25 2 -25 -2 0 -11 -34 -7
-42 5 -5 6 -8 4 -8 -5 0 -13 -1 -13 -10 0 -7 11 -10 11 -10 2 0 -7 -4 -10 -10
-7 -5 3 -10 -1 -10 -9 0 -21 -21 -31 -32 -15 -7 11 -11 11 -15 1 -2 -6 -9 -10
-14 -6 -5 3 -9 0 -9 -7 0 -7 -3 -9 -6 -6 -4 3 -15 2 -25 -4 -14 -7 -19 -6 -19
2 0 8 -5 7 -17 -2 -15 -12 -16 -12 -8 1 8 13 7 13 -8 1 -10 -7 -17 -9 -17 -3
0 14 -27 9 -43 -8 -9 -11 -8 -11 8 0 19 14 19 14 6 -3 -8 -10 -20 -16 -28 -13
-7 3 -13 1 -13 -5 0 -6 -5 -7 -12 -3 -7 4 -8 3 -4 -5 4 -6 0 -14 -8 -17 -9 -3
-13 -11 -9 -18 4 -6 -1 -5 -10 3 -15 12 -17 12 -11 -2 6 -16 -18 -19 -32 -4
-11 11 -26 8 -19 -3 8 -13 -18 -8 -27 5 -5 6 -8 6 -8 -2 0 -8 -9 -9 -30 -3
-22 6 -28 5 -24 -2 5 -7 2 -9 -8 -6 -8 4 -21 2 -29 -3 -10 -6 -10 -9 -1 -9 8
0 6 -6 -5 -18 -16 -15 -57 -20 -88 -11 -19 6 -55 -12 -49 -23 5 -7 1 -9 -9 -5
-9 3 -19 1 -23 -5 -4 -7 -3 -8 4 -4 7 4 12 3 12 -2 0 -16 -13 -22 -26 -11 -10
9 -15 7 -20 -5 -4 -11 -11 -13 -22 -7 -20 11 -64 -8 -55 -23 4 -6 -2 -4 -12 4
-10 8 -16 10 -12 4 4 -6 -2 -19 -12 -28 -12 -11 -21 -13 -25 -7 -4 6 -13 8
-22 4 -8 -3 -13 -8 -10 -10 11 -11 -20 -29 -42 -25 -19 4 -23 2 -17 -9 8 -12
6 -12 -8 0 -12 9 -17 10 -17 2 0 -7 -9 -21 -20 -33 -12 -13 -20 -17 -20 -9 0
11 -3 11 -17 0 -15 -12 -16 -12 -8 1 8 13 7 13 -8 1 -9 -7 -17 -9 -17 -4 0 21
-32 8 -46 -20 -11 -21 -21 -28 -35 -24 -11 3 -19 0 -19 -6 0 -9 -2 -9 -8 -1
-10 16 -41 2 -56 -26 -7 -14 -18 -24 -24 -23 -7 2 -12 -3 -12 -10 0 -8 -4 -7
-10 3 -9 13 -10 13 -10 0 0 -13 -1 -13 -10 0 -6 9 -10 11 -10 3 0 -7 -6 -10
-14 -7 -14 5 -46 -20 -46 -37 0 -6 -4 -8 -9 -5 -4 3 -17 -2 -27 -10 -10 -9
-12 -13 -4 -9 8 4 6 -1 -4 -9 -16 -13 -22 -13 -28 -3 -6 9 -8 8 -8 -3 0 -13
-2 -13 -9 -1 -7 11 -11 10 -22 -7 -8 -12 -19 -18 -28 -14 -13 5 -14 3 -4 -10
16 -18 5 -32 -14 -17 -10 9 -13 8 -13 -2 0 -11 -2 -11 -10 1 -9 13 -10 13 -10
0 0 -13 -1 -13 -10 0 -7 11 -10 11 -10 2 0 -7 -4 -11 -9 -7 -5 3 -13 0 -17 -6
-4 -8 -3 -9 4 -5 7 4 12 2 12 -3 0 -6 -5 -11 -11 -11 -5 0 -7 -4 -4 -10 3 -5
0 -10 -9 -10 -8 0 -17 6 -19 13 -3 6 -6 3 -6 -8 -1 -17 -3 -17 -11 -5 -5 8
-10 10 -10 4 0 -6 -11 -10 -24 -9 -17 2 -23 -2 -22 -14 1 -9 -6 -15 -16 -15
-10 1 -16 -2 -13 -6 3 -5 1 -11 -5 -15 -5 -3 -10 -2 -10 3 0 6 -10 5 -24 -1
-13 -7 -22 -15 -20 -19 3 -5 -7 -8 -21 -8 -17 0 -24 -4 -19 -12 5 -8 2 -9 -9
-5 -9 3 -16 3 -14 -1 1 -4 -1 -7 -5 -7 -4 0 -15 -10 -23 -22 -9 -13 -22 -23
-29 -23 -8 0 -13 -8 -12 -17 1 -12 -5 -17 -18 -15 -10 2 -15 -1 -12 -6 7 -11
-19 -10 -30 1 -4 4 -13 -1 -21 -11 -8 -9 -12 -11 -8 -4 3 6 1 12 -4 12 -6 0
-11 -7 -11 -16 0 -9 -5 -12 -12 -8 -8 5 -9 2 -5 -9 3 -10 2 -17 -3 -17 -6 0
-10 6 -11 13 0 6 -5 1 -10 -12 -7 -19 -12 -22 -21 -13 -18 18 -31 14 -25 -8 4
-17 2 -18 -15 -9 -15 8 -19 8 -14 0 11 -17 -5 -36 -16 -20 -7 11 -11 11 -15 2
-2 -7 -14 -13 -24 -13 -13 0 -18 -4 -13 -12 5 -8 2 -9 -10 -5 -10 4 -15 3 -11
-3 3 -6 1 -10 -5 -10 -6 0 -9 -4 -5 -9 3 -5 1 -12 -5 -16 -5 -3 -10 -1 -10 6
0 8 -5 7 -17 -2 -15 -12 -16 -12 -8 1 7 12 6 13 -7 3 -8 -7 -19 -9 -23 -5 -5
4 -5 1 -1 -6 4 -7 1 -15 -9 -18 -13 -6 -14 -8 -3 -15 9 -6 7 -9 -9 -9 -17 0
-21 -4 -16 -17 4 -11 3 -14 -5 -9 -7 4 -12 2 -12 -4 0 -8 -6 -8 -20 0 -15 8
-20 8 -20 -2 0 -9 -3 -9 -10 2 -8 12 -10 12 -10 1 0 -11 -3 -11 -15 -1 -14 12
-20 7 -16 -14 1 -5 -5 -6 -14 -2 -9 3 -14 2 -11 -3 3 -5 -1 -14 -9 -21 -8 -7
-15 -9 -15 -4 0 4 -7 -1 -15 -12 -8 -10 -14 -14 -13 -9 3 10 -4 15 -23 15 -5
0 -8 -4 -5 -9 3 -5 -1 -12 -10 -15 -8 -3 -12 -11 -8 -17 4 -8 3 -9 -5 -5 -6 4
-18 2 -26 -4 -8 -7 -15 -8 -15 -3 0 5 -9 9 -19 9 -14 0 -17 -4 -10 -12 8 -9 5
-11 -12 -7 -15 4 -20 3 -15 -5 5 -8 -1 -12 -15 -12 -17 0 -19 -3 -10 -14 9
-11 6 -12 -15 -8 -18 3 -25 1 -20 -6 3 -6 -6 -13 -24 -17 -17 -4 -28 -10 -25
-15 3 -4 -2 -11 -11 -14 -8 -3 -13 -10 -9 -15 3 -5 0 -13 -6 -17 -7 -4 -9 -3
-5 4 3 6 2 13 -4 17 -5 3 -10 -1 -10 -9 0 -12 -6 -13 -31 -6 -27 8 -30 7 -25
-8 5 -13 3 -13 -9 2 -8 11 -15 14 -15 7 0 -7 -5 -9 -12 -5 -7 5 -9 2 -5 -9 4
-11 2 -14 -7 -11 -8 3 -16 -3 -18 -14 -4 -14 -16 -21 -42 -24 -21 -2 -36 0
-36 7 0 5 -5 2 -11 -8 -6 -9 -15 -14 -21 -11 -8 5 -9 1 -5 -10 6 -14 3 -17 -8
-12 -9 3 -13 2 -10 -3 3 -5 1 -12 -5 -16 -5 -3 -10 -1 -10 6 0 8 -4 8 -15 -1
-8 -7 -15 -8 -15 -3 0 8 -32 10 -50 3 -3 -1 -9 -2 -13 -1 -5 1 -6 -3 -3 -8 3
-5 3 -17 0 -26 -5 -13 -8 -14 -15 -3 -7 10 -9 11 -9 0 0 -9 -9 -12 -27 -9 -38
6 -73 -9 -73 -30 0 -15 -2 -16 -10 -3 -9 13 -10 13 -10 0 0 -12 -2 -12 -8 -2
-6 9 -15 5 -32 -18 -19 -25 -30 -30 -68 -30 -35 0 -43 -3 -38 -15 3 -8 0 -14
-7 -12 -7 1 -11 -4 -9 -11 2 -10 -2 -10 -19 -1 -17 9 -20 8 -14 -2 6 -9 3 -11
-8 -6 -10 4 -17 1 -17 -6 0 -8 -4 -6 -10 3 -9 13 -10 13 -10 0 0 -13 -1 -13
-10 0 -8 12 -10 12 -11 -5 0 -20 0 -20 -8 0 -8 19 -8 19 -19 -1 -6 -12 -9 -23
-7 -26 3 -3 -2 -5 -10 -5 -8 0 -12 3 -10 7 2 4 -2 7 -9 7 -8 0 -12 -5 -10 -11
2 -6 -5 -17 -16 -24 -16 -10 -20 -10 -20 0 0 9 -3 8 -10 -2 -8 -12 -10 -12
-10 -1 0 11 -3 11 -15 1 -11 -9 -15 -9 -15 -1 0 8 -5 9 -19 2 -10 -6 -21 -7
-25 -3 -4 3 -4 -1 -1 -10 4 -9 1 -19 -6 -24 -8 -5 -10 -3 -5 7 4 8 -1 3 -12
-10 -15 -18 -21 -21 -25 -10 -4 12 -6 12 -6 0 -1 -11 -4 -11 -17 -1 -8 8 -14
9 -13 4 3 -18 -1 -37 -8 -31 -3 4 -12 2 -20 -4 -10 -9 -13 -8 -13 1 0 10 -3
10 -15 0 -8 -7 -15 -8 -15 -3 0 20 -42 6 -54 -18 -9 -18 -20 -24 -44 -24 -18
0 -32 -4 -32 -9 0 -4 -6 -3 -14 3 -11 10 -15 8 -19 -6 -4 -17 -5 -17 -6 0 -1
25 -21 11 -21 -15 0 -17 -2 -18 -15 -8 -13 11 -14 10 -8 -5 5 -14 3 -17 -10
-12 -10 4 -17 1 -17 -6 0 -8 -4 -6 -10 3 -9 13 -10 13 -10 0 0 -13 -1 -13 -10
0 -9 13 -10 13 -10 0 0 -13 -1 -13 -10 0 -9 13 -10 13 -10 0 0 -12 -2 -12 -9
-1 -6 10 -10 10 -16 1 -6 -9 -10 -9 -16 1 -7 11 -9 11 -9 -1 0 -12 -2 -13 -9
-1 -7 11 -13 9 -29 -7 -11 -11 -23 -18 -26 -14 -3 3 -6 0 -6 -7 0 -7 -5 -9
-12 -5 -6 4 -8 3 -4 -4 3 -6 2 -13 -4 -17 -14 -9 -9 -62 7 -62 6 0 10 3 8 7
-2 4 2 7 10 7 8 0 12 -4 9 -9 -3 -4 0 -8 5 -8 6 0 11 4 11 9 0 5 15 5 35 1 29
-7 35 -5 36 9 0 12 2 12 9 -4 5 -11 9 -14 9 -7 1 10 6 10 21 2 14 -8 20 -8 20
0 0 6 4 8 10 5 5 -3 15 3 21 14 10 15 18 17 36 10 16 -6 23 -5 23 4 0 8 4 7
10 -3 6 -10 10 -11 10 -2 0 6 5 12 11 12 5 0 7 -6 3 -12 -5 -9 -2 -9 9 1 14
11 17 11 17 0 0 -11 2 -11 10 1 9 13 10 13 10 0 0 -12 2 -13 9 -1 7 11 9 11
14 0 4 -12 7 -11 16 1 8 11 11 11 11 2 0 -10 5 -10 20 -2 15 8 20 8 20 -1 0
-8 5 -7 17 2 15 12 16 12 8 -1 -8 -13 -7 -13 8 -1 9 7 17 9 17 4 0 -11 29 -11
48 1 7 4 12 2 12 -6 0 -9 3 -9 10 2 8 12 10 12 10 1 0 -11 3 -11 15 -1 12 10
15 10 15 0 0 -9 4 -9 17 1 15 12 16 12 8 -1 -8 -13 -7 -13 8 -1 9 7 17 9 17 4
0 -11 29 -11 48 1 7 4 12 2 12 -6 0 -9 3 -9 10 2 8 12 10 12 10 1 0 -10 3 -11
14 -2 10 9 16 9 21 1 5 -8 11 -8 21 1 11 9 14 9 14 0 0 -7 5 -9 10 -6 6 4 8
12 4 18 -3 7 2 3 10 -7 12 -15 16 -16 16 -5 0 12 2 12 10 -1 9 -13 11 -13 20
0 7 11 10 11 10 2 0 -10 5 -10 20 -2 12 6 20 7 20 1 0 -11 19 -9 39 3 11 7 12
6 6 -5 -8 -12 -6 -12 8 0 14 11 17 11 17 0 0 -11 2 -11 10 1 9 13 10 13 10 0
0 -13 1 -13 10 0 8 12 10 12 10 1 0 -11 3 -11 16 0 13 10 17 10 25 -2 7 -12 9
-12 9 1 0 13 1 13 10 0 9 -13 11 -13 20 0 7 11 10 11 10 2 0 -10 5 -10 20 -2
12 6 20 7 20 1 0 -11 19 -9 39 3 11 7 12 6 6 -5 -8 -12 -6 -12 8 0 14 11 17
11 17 0 0 -11 2 -11 10 1 9 13 10 13 10 0 0 -13 1 -13 10 0 8 12 10 12 10 1 0
-11 3 -11 16 0 13 10 17 10 25 -2 7 -12 9 -12 9 1 0 13 1 13 10 0 8 -12 11
-13 19 -1 6 9 11 10 15 2 4 -6 12 -11 17 -11 6 0 8 4 4 9 -6 10 27 7 45 -4 6
-3 10 0 10 7 0 10 2 10 9 0 4 -8 12 -14 16 -14 4 0 12 6 16 14 7 11 9 11 9 -1
0 -11 3 -11 15 -1 12 10 15 10 15 -1 0 -11 2 -11 10 1 9 13 11 13 20 0 9 -13
10 -13 10 0 0 13 1 13 10 0 9 -13 11 -13 20 0 7 11 10 11 10 2 0 -10 5 -10 20
-2 12 6 20 7 20 1 0 -11 19 -9 39 3 10 7 12 5 6 -3 -6 -10 -3 -11 14 -2 16 9
21 9 21 -1 0 -9 3 -9 10 2 7 11 10 11 10 2 0 -8 5 -10 13 -5 17 11 38 13 32 3
-6 -10 15 -8 33 3 6 5 12 4 12 -1 0 -5 7 -9 15 -9 8 0 12 4 9 9 -3 4 0 8 5 8
6 0 11 -6 11 -12 0 -10 3 -9 9 1 7 11 9 11 14 0 4 -12 7 -11 16 1 8 11 11 11
11 2 0 -10 5 -10 20 -2 12 6 20 7 20 1 0 -5 8 -8 18 -6 9 2 17 4 17 5 0 1 8 3
18 5 11 2 15 -1 11 -8 -5 -9 -3 -8 6 0 9 8 19 9 32 2 13 -7 18 -6 18 3 0 10 2
10 9 0 11 -17 21 -17 32 0 7 11 9 11 9 -1 0 -11 3 -11 15 -1 12 10 15 10 15
-1 0 -11 2 -11 10 1 9 13 11 13 20 0 9 -13 10 -13 10 0 0 13 1 13 10 0 9 -13
11 -13 20 0 7 11 10 11 10 2 0 -10 5 -10 20 -2 12 6 20 7 20 1 0 -11 19 -9 39
3 10 7 12 5 6 -3 -6 -10 -3 -11 14 -2 16 9 21 9 21 -1 0 -9 3 -9 10 2 7 11 10
11 10 2 0 -8 5 -10 13 -5 17 11 38 13 32 3 -6 -10 15 -8 33 3 6 5 12 4 12 -1
0 -5 7 -9 15 -9 8 0 12 4 9 9 -3 4 0 8 5 8 6 0 11 -6 11 -12 0 -10 3 -9 9 1 7
11 9 11 14 0 4 -12 7 -11 16 1 8 11 11 11 11 2 0 -10 5 -10 20 -2 12 6 20 7
20 1 0 -5 8 -8 18 -6 9 2 17 4 17 5 0 1 8 3 18 5 11 2 15 -1 11 -8 -5 -9 -3
-8 6 0 9 8 19 9 32 2 13 -7 18 -6 18 3 0 10 2 10 9 0 11 -17 21 -17 32 0 7 11
9 11 9 -1 0 -11 3 -11 15 -1 12 10 15 10 15 -1 0 -11 2 -11 10 1 9 13 11 13
20 0 9 -13 10 -13 10 0 0 13 1 13 10 0 9 -13 11 -13 20 0 7 11 10 11 10 2 0
-10 5 -10 20 -2 12 6 20 7 20 1 0 -11 19 -9 39 3 10 7 12 5 6 -3 -6 -10 -3
-11 14 -2 16 9 21 9 21 -1 0 -9 3 -9 10 2 7 11 10 11 10 2 0 -8 5 -10 13 -5
17 11 38 13 32 3 -6 -10 15 -8 33 3 6 5 12 4 12 -1 0 -5 7 -9 15 -9 8 0 12 4
9 9 -3 4 0 8 5 8 6 0 11 -6 11 -12 0 -10 3 -9 9 1 7 11 9 11 14 0 4 -12 7 -11
16 1 8 11 11 11 11 2 0 -10 5 -10 20 -2 12 6 20 7 20 1 0 -5 8 -8 18 -6 9 2
17 4 17 5 0 1 8 3 18 5 11 2 15 -1 11 -8 -5 -9 -3 -8 6 0 9 8 19 9 32 2 13 -7
18 -6 18 3 0 10 2 10 9 0 4 -8 12 -14 16 -14 4 0 12 6 16 14 7 11 9 11 9 -1 0
-11 3 -11 15 -1 12 10 15 10 15 -1 0 -11 2 -11 10 1 9 13 11 13 20 0 9 -13 10
-13 10 0 0 13 1 13 10 0 9 -13 11 -13 20 0 7 11 10 11 10 2 0 -10 5 -10 20 -2
12 6 20 7 20 1 0 -11 19 -9 39 3 10 7 12 5 6 -3 -6 -10 -3 -11 14 -2 16 9 21
9 21 -1 0 -9 3 -9 10 2 7 11 10 11 10 2 0 -8 5 -10 13 -5 17 11 38 13 32 3 -6
-10 15 -8 33 3 6 5 12 4 12 -1 0 -5 7 -9 15 -9 8 0 12 4 9 9 -3 4 0 8 5 8 6 0
11 -6 11 -12 0 -10 3 -9 9 1 7 11 9 11 14 0 4 -12 7 -11 16 1 8 11 11 11 11 2
0 -10 5 -10 20 -2 12 6 20 7 20 1 0 -11 19 -9 39 3 10 7 12 5 6 -3 -6 -10 -3
-11 14 -2 16 9 21 9 21 0 0 -8 5 -7 17 2 15 12 16 12 8 -1 -8 -13 -7 -13 8 -1
9 7 17 9 17 4 0 -11 29 -11 48 1 7 4 12 2 12 -6 0 -9 3 -9 10 2 8 12 10 12 10
1 0 -11 3 -11 15 -1 12 10 15 10 15 0 0 -9 4 -9 17 1 15 12 16 12 8 -1 -8 -13
-7 -13 8 -1 9 7 17 9 17 4 0 -11 29 -11 48 1 7 4 12 2 12 -6 0 -9 3 -9 10 2 8
12 10 12 10 1 0 -10 3 -11 14 -2 10 9 16 9 21 1 5 -8 11 -8 21 1 11 9 14 9 14
0 0 -7 5 -9 10 -6 6 4 8 12 4 18 -3 7 2 3 10 -7 12 -15 16 -16 16 -5 0 12 2
12 10 -1 9 -13 11 -13 20 0 7 11 10 11 10 2 0 -10 5 -10 20 -2 12 6 20 7 20 1
0 -11 19 -9 39 3 11 7 12 6 6 -5 -8 -12 -6 -12 8 0 14 11 17 11 17 0 0 -11 2
-11 10 1 9 13 10 13 10 0 0 -13 1 -13 10 0 8 12 10 12 10 1 0 -11 3 -11 16 0
13 10 17 10 25 -2 7 -12 9 -12 9 1 0 13 1 13 10 0 9 -13 11 -13 20 0 7 11 10
11 10 2 0 -10 5 -10 20 -2 12 6 20 7 20 1 0 -11 19 -9 39 3 11 7 12 6 6 -5 -8
-12 -6 -12 8 0 14 11 17 11 17 0 0 -11 2 -11 10 1 9 13 10 13 10 0 0 -13 1
-13 10 0 8 12 10 12 10 1 0 -11 3 -11 16 0 13 10 17 10 25 -2 7 -12 9 -12 9 1
0 13 1 13 10 0 8 -12 11 -13 19 -1 6 9 10 10 16 2 5 -9 10 -9 21 0 11 9 14 9
14 -1 0 -9 4 -9 17 1 15 12 16 12 8 -1 -8 -13 -7 -13 8 -1 9 7 17 9 17 4 0
-11 29 -11 48 1 7 4 12 2 12 -6 0 -9 3 -9 10 2 8 12 10 12 10 1 0 -11 3 -11
15 -1 12 10 15 10 15 0 0 -9 4 -9 17 1 15 12 16 12 8 -1 -8 -13 -7 -13 8 -1 9
7 17 9 17 4 0 -11 29 -11 48 1 7 4 12 2 12 -6 0 -9 3 -9 10 2 8 12 10 12 10 1
0 -10 3 -11 14 -2 10 9 16 9 21 1 5 -8 11 -8 21 1 11 9 14 9 14 0 0 -7 5 -9
10 -6 6 4 8 12 4 18 -3 7 2 3 10 -7 12 -15 16 -16 16 -5 0 12 2 12 10 -1 9
-13 11 -13 20 0 7 11 10 11 10 2 0 -10 5 -10 20 -2 12 6 20 7 20 1 0 -11 19
-9 39 3 11 7 12 6 6 -5 -8 -12 -6 -12 8 0 14 11 17 11 17 0 0 -11 2 -11 10 1
9 13 10 13 10 0 0 -13 1 -13 10 0 8 12 10 12 10 1 0 -11 3 -11 16 0 13 10 17
10 25 -2 7 -12 9 -12 9 1 0 13 1 13 10 0 9 -13 11 -13 20 0 7 11 10 11 10 2 0
-10 5 -10 20 -2 12 6 20 7 20 1 0 -11 19 -9 39 3 11 7 12 6 6 -5 -8 -12 -6
-12 8 0 14 11 17 11 17 0 0 -11 2 -11 10 1 9 13 10 13 10 0 0 -13 1 -13 10 0
8 12 10 12 10 1 0 -11 3 -11 16 0 13 10 17 10 25 -2 7 -12 9 -12 9 1 0 13 1
13 10 0 8 -12 11 -13 19 -1 6 9 10 10 16 2 5 -9 11 -9 23 1 13 11 14 11 7 -2
-8 -13 -7 -13 8 -1 14 11 17 11 17 0 0 -11 2 -11 10 1 5 8 10 10 10 3 0 -6 9
-9 20 -6 11 3 17 10 13 17 -4 6 2 4 13 -4 10 -8 16 -11 12 -6 -4 4 -3 19 2 32
7 16 6 24 -1 24 -8 0 -8 4 0 14 8 10 9 16 1 21 -7 4 -7 12 0 26 8 13 7 19 0
19 -6 0 -8 5 -4 12 5 8 2 9 -10 5 -9 -4 -15 -3 -12 2 3 5 -1 11 -9 15 -8 3
-15 12 -15 21 0 8 -5 15 -11 15 -6 0 -9 9 -6 20 3 13 1 18 -6 13 -6 -4 -8 0
-4 10 4 10 2 16 -6 14 -7 -1 -11 4 -9 11 1 8 -2 11 -7 8 -5 -3 -15 2 -22 11
-10 12 -10 14 -1 9 6 -4 12 -2 12 4 0 6 -7 13 -16 17 -13 5 -13 7 -2 14 10 7
9 9 -4 9 -10 0 -18 5 -18 10 0 6 -8 10 -17 11 -15 0 -15 2 2 9 16 7 16 9 4 9
-10 1 -16 9 -15 19 0 9 -4 16 -11 15 -7 -2 -10 4 -7 12 4 8 1 15 -6 15 -6 0
-8 5 -5 10 3 6 0 10 -7 10 -9 0 -9 3 2 10 11 7 12 10 2 10 -15 0 -43 25 -36
32 2 3 -3 11 -13 19 -14 12 -16 12 -8 0 5 -10 4 -12 -4 -7 -6 4 -9 12 -6 17 4
5 0 16 -9 24 -17 18 -30 20 -20 3 4 -7 3 -8 -5 -4 -6 4 -9 12 -5 17 3 6 -2 17
-12 25 -18 15 -18 15 0 9 19 -6 19 -5 1 15 -14 15 -15 20 -4 20 9 0 10 3 3 8
-6 4 -13 15 -17 25 -3 9 -14 17 -23 17 -10 0 -14 3 -11 7 4 3 -1 11 -10 18 -9
7 -18 21 -19 31 -2 10 -8 20 -14 22 -8 3 -8 8 0 17 9 11 5 21 -18 44 -17 16
-28 32 -25 35 6 6 -12 10 -29 7 -4 0 -10 10 -14 24 -3 14 -11 25 -18 25 -6 0
-4 5 4 10 12 8 12 10 -5 11 -20 0 -20 1 -1 8 19 7 18 8 -4 14 -20 5 -22 9 -12
19 15 15 16 28 1 28 -5 0 -7 -6 -3 -12 4 -7 -3 -4 -16 7 -13 11 -20 14 -15 6
6 -10 4 -12 -4 -6 -7 4 -11 16 -8 26 3 12 0 19 -10 19 -8 0 -12 4 -8 9 3 6 -4
15 -15 21 -12 6 -19 17 -17 25 3 7 1 17 -5 23 -8 8 -7 16 2 27 7 9 9 15 3 13
-6 -2 -11 1 -12 5 -1 13 -29 37 -42 37 -7 0 -10 3 -6 6 3 3 -5 17 -19 31 -28
28 -31 37 -6 29 15 -5 15 -4 2 6 -17 15 -15 65 3 87 9 12 9 13 0 7 -9 -5 -11
-2 -7 8 3 9 11 13 17 9 7 -4 8 0 3 12 -5 14 -3 15 6 8 8 -6 22 -7 33 -2 11 4
16 8 11 8 -6 1 -1 8 10 17 10 8 13 13 7 9 -9 -4 -11 -1 -7 10 5 12 9 13 20 4
11 -9 14 -8 14 2 0 11 2 11 10 -1 8 -12 10 -12 10 -1 0 11 3 11 15 1 8 -7 15
-8 15 -3 0 5 7 10 15 10 8 0 15 -7 15 -16 0 -11 3 -10 15 5 11 14 14 15 15 4
0 -13 1 -13 10 0 9 13 10 13 10 0 0 -12 2 -12 9 -1 6 9 10 10 16 2 5 -9 10 -9
21 0 11 9 14 9 14 -1 0 -9 4 -9 17 1 15 12 16 12 8 -1 -8 -13 -7 -13 8 -1 12
9 17 10 17 2 0 -7 5 -9 13 -4 16 10 38 13 33 4 -2 -3 13 -6 34 -6 21 0 36 3
34 6 -5 8 13 5 38 -5 9 -4 14 -14 11 -22 -4 -10 0 -12 13 -7 11 4 15 3 11 -4
-8 -12 20 -26 34 -17 5 3 9 -3 9 -12 0 -10 3 -14 7 -11 3 4 16 -1 27 -10 15
-13 17 -14 8 -2 -9 13 -9 16 3 16 8 0 15 -3 15 -7 0 -4 11 -19 25 -34 21 -23
25 -24 26 -9 0 15 2 14 11 -4 6 -13 15 -23 20 -23 5 0 6 -4 3 -10 -4 -6 1 -7
11 -3 11 4 15 3 10 -5 -3 -6 -2 -13 3 -16 5 -4 13 -2 16 4 4 7 14 3 26 -11 10
-12 16 -26 13 -30 -3 -5 1 -9 8 -9 8 0 20 -9 28 -19 7 -11 18 -17 23 -14 6 3
7 1 4 -5 -10 -15 3 -43 16 -35 7 4 8 0 3 -12 -5 -15 -4 -16 9 -5 13 11 16 11
13 -1 -2 -8 3 -13 10 -11 8 1 11 -2 7 -8 -3 -5 -1 -10 6 -10 8 0 9 -3 0 -13
-14 -18 -2 -30 15 -16 10 8 12 5 8 -16 -4 -22 -2 -26 11 -21 9 3 13 2 10 -4
-3 -6 -1 -10 4 -10 6 0 11 -7 11 -15 0 -8 6 -15 13 -15 8 0 7 -4 -3 -10 -9 -6
-11 -10 -3 -10 7 0 10 -7 6 -15 -3 -9 -2 -15 3 -14 20 3 26 -2 15 -15 -9 -11
-6 -12 16 -9 22 4 25 2 13 -6 -8 -6 -10 -11 -4 -11 7 0 9 -10 6 -25 -2 -14 -8
-22 -13 -19 -5 3 -9 3 -9 -1 0 -3 10 -10 23 -15 19 -8 19 -9 3 -9 -19 -1 -19
-2 -1 -21 18 -20 18 -21 -1 -14 -16 5 -15 4 4 -10 12 -10 19 -22 16 -28 -5 -7
-2 -9 7 -6 10 4 14 -2 14 -18 0 -15 -5 -22 -12 -20 -7 3 -10 -1 -6 -9 3 -8 8
-13 12 -11 3 2 6 -7 6 -20 0 -13 -4 -24 -8 -24 -5 0 -5 -5 -2 -11 15 -23 12
-59 -4 -59 -13 0 -14 -2 -2 -9 17 -11 22 -51 7 -51 -6 0 -4 -5 4 -10 10 -6 11
-10 3 -10 -9 0 -10 -7 -3 -25 7 -18 6 -25 -3 -26 -6 0 -3 -4 8 -9 18 -8 18 -9
2 -9 -14 -1 -16 -5 -9 -17 5 -9 7 -26 4 -37 -4 -16 -2 -19 12 -14 10 4 15 3
11 -3 -3 -6 -1 -10 4 -10 6 0 11 4 11 9 0 12 33 9 42 -4 5 -6 8 -5 8 3 0 8 5
10 13 6 8 -5 8 -2 -2 9 -11 14 -11 17 0 18 8 0 5 4 -6 9 l-20 9 20 0 c17 1 17
3 5 11 -11 7 -11 10 -2 10 10 0 10 5 2 20 -7 14 -7 20 0 20 5 0 10 9 10 21 0
13 -4 18 -12 14 -7 -4 -5 0 4 8 10 8 14 18 10 22 -4 5 1 5 10 2 12 -4 15 -2
11 10 -3 8 0 19 8 24 12 7 12 9 -1 9 -13 0 -13 1 0 10 8 5 10 10 4 10 -7 0 -8
17 -4 50 4 33 3 50 -4 50 -6 0 -4 5 4 10 13 8 13 10 1 10 -11 0 -9 4 5 14 16
12 17 15 4 20 -17 7 -16 81 2 103 7 9 5 15 -7 19 -13 5 -14 9 -3 15 10 7 10 9
-2 9 -13 0 -13 1 0 10 8 5 10 10 4 10 -7 0 -9 10 -6 25 2 14 9 22 16 19 6 -3
3 1 -7 9 -14 11 -15 16 -5 20 7 3 8 6 2 6 -7 1 -8 18 -4 51 4 34 3 50 -5 50
-6 0 -19 14 -28 30 -12 20 -14 30 -6 30 8 0 7 5 -2 17 -12 15 -12 16 6 10 19
-7 19 -6 2 7 -14 10 -15 15 -5 19 8 3 5 6 -7 7 -18 1 -19 2 -2 9 17 6 17 8 -1
29 -10 12 -21 20 -23 17 -3 -2 -6 5 -6 17 -1 12 -7 24 -14 28 -8 5 -8 10 0 14
14 9 -7 54 -28 61 -9 3 -17 15 -18 27 -1 13 -9 28 -17 34 -9 6 -13 14 -9 17 3
4 1 7 -6 7 -7 0 -9 5 -6 10 3 6 2 10 -3 10 -6 0 -13 7 -16 16 -6 15 -4 15 11
3 16 -13 17 -12 4 4 -7 9 -19 17 -25 17 -6 0 -18 9 -26 20 -10 14 -16 16 -22
7 -5 -8 -8 -7 -8 5 0 9 -9 24 -21 32 -12 8 -18 19 -14 25 3 7 -2 11 -15 11
-12 0 -18 5 -15 10 6 9 -8 15 -29 11 -5 -1 -3 6 5 15 9 12 9 15 2 10 -8 -4
-13 -2 -13 4 0 6 -4 8 -10 5 -6 -3 -7 1 -4 9 5 13 -2 16 -36 16 -32 0 -41 3
-37 14 4 10 0 14 -13 11 -11 -2 -19 -1 -19 3 1 4 1 14 0 22 -1 13 -2 13 -11 0
-8 -12 -10 -12 -10 -1 0 10 -3 11 -13 3 -10 -9 -18 -6 -30 9 -10 11 -15 24
-12 29 3 4 -6 7 -20 5 -14 -1 -25 2 -25 7 0 5 -7 17 -16 25 -12 12 -18 13 -23
4 -6 -9 -11 -8 -21 4 -10 12 -16 13 -28 3 -9 -7 -13 -8 -10 -3 4 6 3 17 -3 25
-6 11 -9 11 -9 2 0 -10 -3 -10 -14 0 -8 7 -12 16 -9 21 2 4 -1 7 -6 7 -6 0
-11 -4 -11 -9 0 -6 -12 -6 -30 -1 -16 5 -30 6 -30 2 -1 -4 -8 6 -16 21 -8 15
-19 25 -24 22 -6 -4 -10 -1 -10 6 0 8 -4 8 -15 -1 -12 -10 -15 -10 -15 0 0 10
-3 10 -15 0 -12 -10 -15 -10 -15 0 0 10 -4 10 -16 -1 -13 -10 -17 -10 -25 2
-8 12 -10 12 -19 -1 -9 -13 -11 -13 -20 0 -9 13 -10 13 -10 0 0 -13 -1 -13
-11 0 -8 11 -12 12 -16 3 -2 -7 -9 -13 -14 -13 -6 0 -7 6 -3 13 6 9 4 9 -8 -1
-13 -10 -17 -10 -21 0 -4 10 -8 10 -16 -2 -10 -13 -12 -13 -21 0 -9 13 -10 13
-10 0 0 -13 -1 -13 -11 0 -8 11 -12 12 -16 3 -2 -7 -9 -13 -14 -13 -6 0 -7 6
-3 13 6 9 4 9 -8 -1 -13 -10 -17 -10 -21 0 -4 10 -8 10 -16 -2 -10 -13 -12
-13 -21 0 -9 13 -10 13 -10 0 0 -13 -1 -13 -10 0 -9 13 -10 13 -10 0 0 -13 -2
-13 -9 -1 -8 12 -12 12 -25 2 -13 -11 -16 -11 -16 0 0 11 -2 11 -10 -1 -9 -13
-10 -13 -10 0 0 13 -1 13 -10 0 -9 -13 -10 -13 -10 0 0 13 -1 13 -10 0 -9 -13
-10 -13 -10 0 0 13 -1 13 -10 0 -9 -13 -10 -13 -10 0 0 13 -1 13 -10 0 -9 -13
-10 -13 -10 0 0 12 -2 13 -9 1 -7 -11 -9 -11 -13 0 -4 12 -7 12 -21 0 -14 -11
-17 -11 -17 0 0 11 -2 11 -10 -1 -9 -13 -10 -13 -10 0 0 13 -1 13 -10 0 -9
-13 -10 -13 -10 0 0 13 -1 13 -10 0 -9 -13 -10 -13 -10 0 0 13 -1 13 -10 0 -9
-13 -10 -13 -10 0 0 13 -1 13 -10 0 -9 -13 -10 -13 -10 0 0 12 -2 13 -9 1 -7
-11 -9 -11 -14 0 -4 11 -6 11 -6 -1 -1 -13 -2 -13 -11 0 -9 13 -11 13 -20 0
-9 -13 -11 -13 -20 0 -9 13 -10 13 -10 0 0 -13 -1 -13 -10 0 -9 13 -11 13 -20
0 -9 -13 -11 -13 -20 0 -9 13 -10 13 -10 0 0 -13 -1 -13 -11 0 -8 11 -12 12
-16 3 -2 -7 -9 -13 -14 -13 -6 0 -7 6 -3 13 6 9 4 9 -8 -1 -13 -10 -17 -10
-21 0 -4 10 -8 10 -16 -2 -10 -13 -12 -13 -21 0 -9 13 -10 13 -10 0 0 -13 -1
-13 -11 0 -8 11 -12 12 -16 3 -2 -7 -9 -13 -14 -13 -6 0 -7 6 -3 13 5 8 2 8
-9 -2 -11 -9 -17 -10 -17 -2 0 6 -4 11 -10 11 -5 0 -10 -4 -10 -9z m1665 -361
c3 -5 1 -10 -4 -10 -6 0 -11 5 -11 10 0 6 2 10 4 10 3 0 8 -4 11 -10z m169
-226 c3 -8 2 -12 -4 -9 -6 3 -10 10 -10 16 0 14 7 11 14 -7z"/>
<path d="M6095 6249 c-4 -6 -5 -12 -2 -15 2 -3 7 2 10 11 7 17 1 20 -8 4z"/>
<path d="M6895 6160 c-3 -5 -1 -10 4 -10 6 0 11 5 11 10 0 6 -2 10 -4 10 -3 0
-8 -4 -11 -10z"/>
<path d="M6056 5717 c3 -10 9 -15 12 -12 3 3 0 11 -7 18 -10 9 -11 8 -5 -6z"/>
<path d="M1730 5310 c0 -5 5 -10 11 -10 5 0 7 5 4 10 -3 6 -8 10 -11 10 -2 0
-4 -4 -4 -10z"/>
<path d="M4100 4830 c-9 -6 -10 -10 -3 -10 6 0 15 5 18 10 8 12 4 12 -15 0z"/>
</g>
</svg>
